# xmcd
#
# Track frame offsets:
#	150
#	14232
#	26738
#	39760
#	54757
#	71581
#	87508
#	102450
#	118072
#	133843
#	148650
#	164855
#	179852
#	195110
#	230128
#	244914
#	260654
#	280923
#	303870
#	320031
#
# Disc length: 4481 seconds
#
# Revision: 0
# Processed by: cddbd v1.5.2PL0 Copyright (c) Steve Scherf et al.
# Submitted via: EasyCDDAExtractor 11.6.0.1
#
DISCID=35117f14
DTITLE=Various Artist - Winter Electro House [CD2)
DYEAR=2008
DGENRE=House
TTITLE0=David Tavare - Hot Summer Night (Oh La La La)
TTITLE1=Jakarta - One Desire
TTITLE2=1 Plus 1 - Off The Wall (Enjoy Yourself)
TTITLE3=Teo Moss and Jeremy Reyes - E-Samba
TTITLE4=Afronics - Everybody Dance
TTITLE5=Fred De F - Disco Dancefloor
TTITLE6=Monako - Shake Da Body
TTITLE7=Desaparecidos Vs Walter Master J - Ibiza
TTITLE8=Dynamix Brotherz Feat. Jerome Prister - Can You Feel It
TTITLE9=Chris Kaeser Feat. Max'c - Ulysse
TTITLE10=Lexter - Freedom To Love
TTITLE11=Sandy Vs Dhany - Break The Wall
TTITLE12=R.I.O. - Shine On
TTITLE13=Sharam Feat. Daniel Bedingfield - The One (David Guetta and Joachim Gar
TTITLE13=raud Remix Edit)
TTITLE14=Ida Corr - Ride My Tempo
TTITLE15=Samy K Vs Diva Avari - Fuckin' Bitch
TTITLE16=Damstaff - Back 2 Me
TTITLE17=Playahitty - The Summer Is Magic 2008
TTITLE18=Alp Vs Outwork - Fiesta Eletronika
TTITLE19=Herve Feat. Plastic Little - Cheap Thrills
EXTD=
EXTT0=
EXTT1=
EXTT2=
EXTT3=
EXTT4=
EXTT5=
EXTT6=
EXTT7=
EXTT8=
EXTT9=
EXTT10=
EXTT11=
EXTT12=
EXTT13=
EXTT14=
EXTT15=
EXTT16=
EXTT17=
EXTT18=
EXTT19=
PLAYORDER=
